<?xml version="1.0" encoding="utf-8"?>
<!-- Generator: Adobe Illustrator 18.1.1, SVG Export Plug-In . SVG Version: 6.00 Build 0)  -->
<svg version="1.1" id="Layer_1" xmlns="http://www.w3.org/2000/svg" xmlns:xlink="http://www.w3.org/1999/xlink" x="0px" y="0px"
	 viewBox="0 0 930 360" enable-background="new 0 0 930 360" xml:space="preserve">
<g>
	<path fill="#444444" d="M92,225.5l-0.2-38.3l-18.2,30.7H61l-18.2-29.4v37H17v-84h23.3l27.4,44.8l26.6-44.8h23.3l0.2,84H92z"/>
</g>
<g>
	<path fill="#222222" d="M85.8,229.7l-0.2-38.3l-18.2,30.7H54.8l-18.2-29.4v37H10.8v-84h23.3l27.4,44.8l26.6-44.8h23.3l0.2,84H85.8z
		"/>
</g>
<g>
	<path fill="#222222" d="M196.4,212.2l-0.1-23l-10.9,18.4h-7.5L166.8,190v22.2h-15.5v-50.4h14l16.4,26.9l16-26.9h14l0.1,50.4H196.4z
		"/>
	<path fill="#222222" d="M262.6,172.8v39.4h-15.5v-3.7c-1.4,1.5-3.1,2.6-5,3.3c-1.9,0.7-4,1.1-6.1,1.1c-5,0-9-1.5-12-4.6
		c-3-3-4.5-7.6-4.5-13.8v-21.7h16.3v18.9c0,2.7,0.4,4.6,1.3,5.8c0.9,1.2,2.1,1.7,3.8,1.7c1.6,0,2.9-0.6,4-1.9c1.1-1.3,1.6-3.3,1.6-6
		v-18.5H262.6z"/>
	<path fill="#222222" d="M275.3,211.8c-3.3-0.7-5.9-1.7-7.9-2.8l4.5-10.7c1.8,1.1,4,2,6.5,2.6c2.5,0.6,4.9,0.9,7.3,0.9
		c1.9,0,3.2-0.2,3.9-0.5c0.7-0.3,1.1-0.8,1.1-1.4c0-0.6-0.5-1.1-1.4-1.3c-0.9-0.2-2.5-0.5-4.6-0.7c-3.2-0.4-6-0.9-8.2-1.5
		c-2.3-0.6-4.2-1.8-5.9-3.5c-1.7-1.7-2.6-4.2-2.6-7.4c0-2.5,0.8-4.8,2.3-6.8c1.5-2,3.8-3.6,6.9-4.8c3-1.2,6.7-1.8,11-1.8
		c3,0,5.9,0.3,8.7,0.8c2.9,0.6,5.3,1.4,7.3,2.4l-4.5,10.7c-3.5-1.9-7.2-2.9-11.4-2.9c-3.6,0-5.3,0.6-5.3,1.9c0,0.6,0.5,1.1,1.4,1.3
		c1,0.3,2.5,0.5,4.5,0.8c3.2,0.4,5.9,0.9,8.2,1.5c2.2,0.6,4.2,1.8,5.9,3.5c1.7,1.7,2.6,4.2,2.6,7.4c0,2.4-0.8,4.7-2.3,6.7
		c-1.5,2-3.8,3.6-6.9,4.8c-3.1,1.2-6.8,1.8-11.2,1.8C281.9,212.9,278.5,212.5,275.3,211.8z"/>
	<path fill="#222222" d="M311.5,167.3c-1.8-1.6-2.7-3.5-2.7-5.9c0-2.4,0.9-4.4,2.7-5.9c1.8-1.6,4.2-2.3,7.1-2.3c3,0,5.4,0.7,7.1,2.2
		c1.8,1.5,2.7,3.4,2.7,5.8c0,2.5-0.9,4.5-2.7,6.2c-1.8,1.6-4.2,2.4-7.1,2.4C315.7,169.6,313.3,168.8,311.5,167.3z M310.5,172.8h16.3
		v39.4h-16.3V172.8z"/>
	<path fill="#222222" d="M343.1,210.3c-3.5-1.7-6.3-4.2-8.3-7.3c-2-3.1-3-6.6-3-10.6c0-3.9,1-7.5,3-10.5c2-3.1,4.8-5.5,8.3-7.2
		c3.5-1.7,7.5-2.6,12-2.6c4.8,0,8.9,1,12.3,3.1c3.4,2.1,5.8,4.9,7.1,8.6l-12.6,6.2c-1.5-3.5-3.8-5.2-6.8-5.2c-1.9,0-3.5,0.7-4.8,2
		c-1.3,1.3-1.9,3.2-1.9,5.7c0,2.5,0.6,4.4,1.9,5.8c1.3,1.3,2.9,2,4.8,2c3,0,5.3-1.7,6.8-5.2l12.6,6.2c-1.3,3.6-3.6,6.5-7.1,8.6
		c-3.4,2.1-7.5,3.1-12.3,3.1C350.7,212.9,346.7,212,343.1,210.3z"/>
	<path fill="#222222" d="M379.3,167.3c-1.8-1.6-2.7-3.5-2.7-5.9c0-2.4,0.9-4.4,2.7-5.9c1.8-1.6,4.2-2.3,7.1-2.3c3,0,5.4,0.7,7.1,2.2
		c1.8,1.5,2.7,3.4,2.7,5.8c0,2.5-0.9,4.5-2.7,6.2c-1.8,1.6-4.2,2.4-7.1,2.4C383.4,169.6,381.1,168.8,379.3,167.3z M378.2,172.8h16.3
		v39.4h-16.3V172.8z"/>
	<path fill="#222222" d="M435.2,176.7c3.6,3.1,5.5,7.9,5.5,14.3v21.2h-15.1V207c-1.9,3.9-5.6,5.9-11.2,5.9c-3.1,0-5.8-0.5-8-1.6
		c-2.2-1.1-3.8-2.5-5-4.4s-1.7-3.9-1.7-6.2c0-3.9,1.5-6.8,4.5-8.9c3-2,7.5-3,13.5-3h6.6c-0.5-3.1-3-4.6-7.4-4.6
		c-1.8,0-3.6,0.3-5.4,0.8c-1.8,0.6-3.4,1.3-4.7,2.3l-5.2-10.7c2.3-1.4,5-2.5,8.2-3.3c3.2-0.8,6.4-1.2,9.5-1.2
		C426.3,172.1,431.5,173.6,435.2,176.7z M422.4,202.2c0.9-0.6,1.6-1.6,2-2.8v-2.7h-4c-3.3,0-5,1.1-5,3.3c0,0.9,0.3,1.7,1,2.3
		c0.7,0.6,1.6,0.9,2.8,0.9C420.4,203.1,421.5,202.8,422.4,202.2z"/>
	<path fill="#222222" d="M486.8,176.5c3,2.9,4.4,7.3,4.4,13.2v22.5h-16.3v-19.7c0-4.5-1.6-6.8-4.8-6.8c-1.8,0-3.3,0.6-4.4,1.9
		c-1.1,1.3-1.7,3.3-1.7,6v18.5h-16.3v-39.4h15.5v3.9c1.5-1.5,3.3-2.7,5.3-3.5c2-0.8,4.2-1.2,6.6-1.2
		C479.9,172.1,483.8,173.5,486.8,176.5z"/>
	<path fill="#222222" d="M503.7,211.8c-3.3-0.7-5.9-1.7-7.9-2.8l4.5-10.7c1.8,1.1,4,2,6.5,2.6c2.5,0.6,4.9,0.9,7.3,0.9
		c1.9,0,3.2-0.2,3.9-0.5c0.7-0.3,1.1-0.8,1.1-1.4c0-0.6-0.5-1.1-1.4-1.3c-0.9-0.2-2.5-0.5-4.6-0.7c-3.2-0.4-6-0.9-8.2-1.5
		c-2.3-0.6-4.2-1.8-5.9-3.5c-1.7-1.7-2.6-4.2-2.6-7.4c0-2.5,0.8-4.8,2.3-6.8c1.5-2,3.8-3.6,6.9-4.8c3-1.2,6.7-1.8,11-1.8
		c3,0,5.9,0.3,8.7,0.8c2.9,0.6,5.3,1.4,7.3,2.4l-4.5,10.7c-3.5-1.9-7.2-2.9-11.4-2.9c-3.6,0-5.3,0.6-5.3,1.9c0,0.6,0.5,1.1,1.4,1.3
		c1,0.3,2.5,0.5,4.5,0.8c3.2,0.4,5.9,0.9,8.2,1.5c2.2,0.6,4.2,1.8,5.9,3.5c1.7,1.7,2.6,4.2,2.6,7.4c0,2.4-0.8,4.7-2.3,6.7
		c-1.5,2-3.8,3.6-6.9,4.8c-3.1,1.2-6.8,1.8-11.2,1.8C510.3,212.9,507,212.5,503.7,211.8z"/>
	<path fill="#444444" d="M606,212.2l-0.1-23L595,207.6h-7.5L576.5,190v22.2H561v-50.4h14l16.4,26.9l16-26.9h14l0.1,50.4H606z"/>
	<path fill="#444444" d="M670.9,196.3h-27.4c0.6,1.5,1.5,2.6,2.9,3.4s3,1.2,5,1.2c1.7,0,3.2-0.2,4.4-0.6c1.2-0.4,2.5-1.2,3.9-2.2
		l8.5,8.6c-3.8,4.2-9.6,6.3-17.2,6.3c-4.8,0-8.9-0.9-12.5-2.6c-3.6-1.8-6.4-4.2-8.4-7.3c-2-3.1-3-6.6-3-10.5c0-3.9,1-7.5,2.9-10.5
		c1.9-3.1,4.6-5.5,8-7.2s7.2-2.6,11.4-2.6c4,0,7.6,0.8,10.9,2.4c3.3,1.6,5.9,3.9,7.8,7c1.9,3.1,2.9,6.7,2.9,11
		C671.1,192.7,671.1,194,670.9,196.3z M645.4,184.5c-1.1,0.9-1.8,2.2-2.2,3.9h12.7c-0.3-1.6-1.1-2.9-2.2-3.9
		c-1.1-0.9-2.5-1.4-4.2-1.4C647.9,183.1,646.5,183.6,645.4,184.5z"/>
	<path fill="#444444" d="M739.8,176.5c2.9,2.9,4.3,7.3,4.3,13.2v22.5h-16.3v-19.7c0-4.5-1.5-6.8-4.4-6.8c-1.5,0-2.8,0.6-3.7,1.7
		c-0.9,1.2-1.4,3-1.4,5.5v19.2H702v-19.7c0-4.5-1.5-6.8-4.4-6.8c-1.5,0-2.8,0.6-3.7,1.7c-0.9,1.2-1.4,3-1.4,5.5v19.2h-16.3v-39.4
		h15.5v3.7c2.9-2.9,6.6-4.4,11.2-4.4c2.6,0,5,0.5,7.1,1.5c2.1,1,3.8,2.5,5.2,4.5c1.6-1.9,3.5-3.4,5.8-4.4c2.3-1,4.7-1.5,7.4-1.5
		C733.1,172.1,736.9,173.5,739.8,176.5z"/>
	<path fill="#444444" d="M760.9,210.3c-3.5-1.8-6.2-4.2-8.2-7.3c-2-3.1-3-6.6-3-10.5c0-3.9,1-7.5,3-10.5c2-3.1,4.7-5.5,8.2-7.2
		c3.5-1.7,7.4-2.6,11.8-2.6c4.4,0,8.4,0.9,11.8,2.6c3.5,1.7,6.2,4.1,8.1,7.2c1.9,3.1,2.9,6.6,2.9,10.5c0,3.9-1,7.5-2.9,10.5
		c-1.9,3.1-4.7,5.5-8.1,7.3c-3.5,1.8-7.4,2.6-11.8,2.6C768.3,212.9,764.4,212,760.9,210.3z M777.3,198.2c1.2-1.4,1.8-3.3,1.8-5.7
		c0-2.4-0.6-4.3-1.8-5.7c-1.2-1.3-2.7-2-4.6-2s-3.4,0.7-4.6,2c-1.2,1.3-1.8,3.2-1.8,5.7c0,2.4,0.6,4.4,1.8,5.7
		c1.2,1.4,2.7,2.1,4.6,2.1S776.1,199.5,777.3,198.2z"/>
	<path fill="#444444" d="M828.9,172.1v14.4c-1.3-0.2-2.5-0.3-3.6-0.3c-5.6,0-8.4,2.8-8.4,8.5v17.5h-16.3v-39.4h15.5v4.2
		C819,173.7,823.3,172.1,828.9,172.1z"/>
	<path fill="#444444" d="M834.5,167.3c-1.8-1.6-2.7-3.5-2.7-5.9c0-2.4,0.9-4.4,2.7-5.9c1.8-1.6,4.2-2.3,7.1-2.3c3,0,5.4,0.7,7.1,2.2
		c1.8,1.5,2.7,3.4,2.7,5.8c0,2.5-0.9,4.5-2.7,6.2c-1.8,1.6-4.2,2.4-7.1,2.4C838.7,169.6,836.3,168.8,834.5,167.3z M833.5,172.8h16.3
		v39.4h-16.3V172.8z"/>
	<path fill="#444444" d="M890.4,176.7c3.6,3.1,5.5,7.9,5.5,14.3v21.2h-15.1V207c-1.9,3.9-5.6,5.9-11.2,5.9c-3.1,0-5.8-0.5-8-1.6
		c-2.2-1.1-3.8-2.5-5-4.4s-1.7-3.9-1.7-6.2c0-3.9,1.5-6.8,4.5-8.9c3-2,7.5-3,13.5-3h6.6c-0.5-3.1-3-4.6-7.4-4.6
		c-1.8,0-3.6,0.3-5.4,0.8c-1.8,0.6-3.4,1.3-4.7,2.3l-5.2-10.7c2.3-1.4,5-2.5,8.2-3.3c3.2-0.8,6.4-1.2,9.5-1.2
		C881.5,172.1,886.8,173.6,890.4,176.7z M877.6,202.2c0.9-0.6,1.6-1.6,2-2.8v-2.7h-4c-3.3,0-5,1.1-5,3.3c0,0.9,0.3,1.7,1,2.3
		c0.7,0.6,1.6,0.9,2.8,0.9C875.7,203.1,876.7,202.8,877.6,202.2z"/>
	<path fill="#444444" d="M903,158.7h16.3v53.4H903V158.7z"/>
</g>
<g>
</g>
<g>
</g>
<g>
</g>
<g>
</g>
<g>
</g>
<g>
</g>
<g>
</g>
<g>
</g>
<g>
</g>
<g>
</g>
<g>
</g>
<g>
</g>
<g>
</g>
<g>
</g>
<g>
</g>
</svg>
